<?xml version="1.0" standalone="no"?>
<!DOCTYPE svg PUBLIC "-//W3C//DTD SVG 20010904//EN"
 "http://www.w3.org/TR/2001/REC-SVG-20010904/DTD/svg10.dtd">
<svg version="1.0" xmlns="http://www.w3.org/2000/svg"
 width="1024.000000pt" height="1024.000000pt" viewBox="0 0 1024.000000 1024.000000"
 preserveAspectRatio="xMidYMid meet">
<metadata>
Created by potrace 1.11, written by Peter Selinger 2001-2013
</metadata>
<g transform="translate(0.000000,1024.000000) scale(0.100000,-0.100000)"
fill="#000000" stroke="none">
<path d="M1140 10233 c-480 -52 -905 -391 -1068 -853 -16 -47 -38 -123 -48
-170 -18 -82 -19 -217 -19 -4090 0 -3873 1 -4008 19 -4090 56 -254 169 -465
349 -648 180 -182 400 -302 657 -358 82 -18 217 -19 4090 -19 3873 0 4008 1
4090 19 257 56 477 176 657 358 180 183 293 394 349 648 18 82 19 217 19 4090
0 3873 -1 4008 -19 4090 -56 257 -176 477 -358 657 -178 175 -371 281 -628
346 l-85 21 -3985 2 c-2192 0 -4001 -1 -4020 -3z m3996 -1083 c401 -32 714
-119 1065 -295 115 -58 215 -84 378 -97 158 -14 284 -2 383 36 35 13 133 58
218 99 85 42 184 83 220 92 94 24 240 23 313 -3 160 -57 270 -208 284 -391 21
-274 -207 -496 -456 -445 -125 26 -514 210 -861 408 -101 58 -187 106 -191
106 -3 0 -14 -9 -24 -20 -17 -19 -15 -24 69 -159 254 -412 294 -524 303 -861
6 -218 -9 -371 -53 -543 -152 -600 -625 -998 -1384 -1163 -367 -80 -827 -103
-1175 -59 -156 20 -416 20 -531 0 -113 -20 -266 -72 -340 -116 -91 -54 -179
-142 -215 -214 -25 -51 -32 -81 -36 -148 -10 -151 28 -248 134 -348 145 -135
336 -210 643 -250 56 -8 478 -14 1230 -19 1234 -8 1174 -5 1392 -61 287 -73
534 -214 743 -424 272 -273 402 -574 422 -975 23 -493 -182 -977 -587 -1380
-477 -476 -1197 -775 -1998 -830 -383 -26 -883 0 -1270 65 -1009 171 -1584
655 -1548 1305 3 58 12 128 20 157 48 175 188 371 409 571 174 157 325 263
775 541 72 45 132 88 132 95 0 9 -20 16 -57 21 -107 13 -293 56 -395 91 -208
73 -361 167 -486 299 -163 172 -230 366 -219 630 5 139 22 207 77 323 59 124
130 220 244 330 224 215 499 354 836 422 131 26 160 40 120 60 -8 5 -71 35
-140 68 -215 103 -395 238 -527 394 -174 206 -265 403 -313 683 -96 559 58
1034 459 1417 336 322 855 541 1391 587 140 12 399 12 546 1z"/>
<path d="M4602 8968 c-149 -21 -329 -99 -458 -198 -426 -329 -638 -1059 -503
-1732 111 -558 497 -965 975 -1029 103 -14 267 -7 369 15 462 100 813 514 929
1098 136 682 -44 1321 -463 1639 -86 66 -266 154 -364 179 -153 38 -339 49
-485 28z"/>
<path d="M4595 3874 c-179 -14 -426 -38 -519 -50 -182 -23 -431 -119 -589
-226 -232 -158 -389 -461 -404 -783 -15 -339 97 -604 370 -875 374 -373 963
-600 1554 -600 391 0 776 60 992 154 179 77 346 191 504 345 214 207 330 408
388 671 31 137 34 398 6 528 -44 204 -128 365 -261 497 -66 66 -98 89 -176
127 -223 108 -491 167 -895 198 -140 11 -876 21 -970 14z"/>
</g>
</svg>
