<?xml version="1.0" standalone="no"?>
<!DOCTYPE svg PUBLIC "-//W3C//DTD SVG 20010904//EN"
 "http://www.w3.org/TR/2001/REC-SVG-20010904/DTD/svg10.dtd">
<svg version="1.0" xmlns="http://www.w3.org/2000/svg"
 width="256.000000pt" height="256.000000pt" viewBox="0 0 256.000000 256.000000"
 preserveAspectRatio="xMidYMid meet">
<metadata>
Created by potrace 1.11, written by Peter Selinger 2001-2013
</metadata>
<g transform="translate(0.000000,256.000000) scale(0.100000,-0.100000)"
fill="#000000" stroke="none">
<path d="M584 2550 c-95 -21 -185 -94 -231 -188 -25 -50 -28 -68 -27 -147 0
-73 4 -99 23 -138 l23 -47 -25 -39 c-115 -173 -178 -396 -172 -605 4 -118 9
-155 37 -256 47 -171 141 -332 269 -462 l77 -78 -3 -84 c-13 -286 204 -512
485 -505 135 3 238 47 332 141 62 62 92 112 118 198 l18 55 78 30 c359 140
605 436 669 804 9 47 22 92 30 101 22 25 71 139 83 195 19 87 9 240 -21 318
-69 179 -216 312 -399 360 -33 8 -78 31 -109 55 -220 165 -538 236 -814 182
l-90 -18 -35 35 c-53 53 -150 96 -224 98 -34 1 -75 -1 -92 -5z m200 -64 c224
-103 231 -419 12 -534 -44 -23 -63 -27 -136 -27 -95 0 -145 19 -208 79 -137
128 -112 368 48 464 92 56 190 62 284 18z m602 -80 c158 -35 273 -79 374 -144
l65 -42 -40 0 c-241 -4 -479 -197 -534 -435 -106 -456 346 -846 774 -668 46
20 129 71 164 102 13 11 25 21 26 21 7 0 -31 -136 -56 -200 -100 -259 -318
-475 -580 -574 l-66 -25 -6 77 c-18 257 -242 451 -503 437 -169 -9 -320 -107
-400 -259 -16 -31 -32 -56 -35 -56 -13 0 -142 145 -182 204 -82 121 -148 295
-164 431 -24 214 6 397 97 580 74 148 68 144 129 98 124 -94 281 -99 407 -12
117 80 172 249 125 387 -11 30 -14 55 -9 58 39 24 332 39 414 20z m537 -241
c227 -48 396 -243 414 -477 33 -435 -450 -724 -816 -489 -210 135 -298 400
-211 634 61 162 194 283 361 327 89 23 161 25 252 5z m-761 -1270 c136 -39
249 -156 293 -301 21 -69 14 -204 -14 -275 -45 -111 -141 -208 -251 -250 -67
-26 -192 -36 -255 -20 -127 32 -239 120 -294 232 -38 78 -42 95 -45 184 -5
128 34 225 129 321 116 118 273 157 437 109z"/>
<path d="M1112 2374 c-74 -31 -81 -136 -12 -177 35 -21 62 -21 100 -2 37 19
50 43 50 92 -1 71 -71 116 -138 87z m90 -41 c22 -20 24 -76 2 -97 -39 -40
-105 -24 -118 29 -6 25 7 63 28 77 20 13 69 8 88 -9z"/>
<path d="M1324 2299 c-42 -12 -65 -40 -71 -87 -11 -80 84 -137 154 -93 95 60
26 209 -83 180z m76 -49 c20 -20 26 -65 12 -86 -10 -15 -47 -34 -67 -34 -24 0
-65 46 -65 73 0 57 79 88 120 47z"/>
<path d="M513 1838 c-111 -29 -86 -198 30 -198 49 0 96 49 97 101 0 67 -61
115 -127 97z m77 -48 c40 -40 19 -100 -42 -115 -21 -5 -33 -1 -52 19 -47 46
-21 116 44 116 17 0 39 -9 50 -20z"/>
<path d="M485 1576 c-43 -43 -45 -101 -5 -144 61 -65 170 -21 170 68 0 87
-106 135 -165 76z m115 -26 c39 -39 20 -102 -35 -116 -46 -11 -92 35 -81 81
14 55 77 74 116 35z"/>
<path d="M548 1333 c-86 -54 -43 -189 59 -185 69 3 115 79 85 141 -27 56 -92
76 -144 44z m105 -40 c41 -38 9 -113 -49 -113 -68 0 -97 68 -48 116 27 28 63
27 97 -3z"/>
<path d="M658 1101 c-28 -25 -33 -36 -32 -72 3 -86 97 -129 162 -74 39 33 48
74 27 118 -30 63 -104 76 -157 28z m112 -19 c30 -25 30 -80 -1 -104 -47 -39
-113 -7 -111 53 2 61 65 89 112 51z"/>
<path d="M1753 995 c-62 -26 -84 -106 -43 -158 56 -71 180 -25 180 66 0 18
-34 87 -42 87 -2 0 -17 4 -34 9 -21 6 -40 4 -61 -4z m87 -47 c27 -29 25 -64
-5 -93 -27 -28 -45 -31 -78 -14 -29 16 -37 28 -37 62 0 60 78 90 120 45z"/>
<path d="M1600 809 c-14 -5 -34 -22 -43 -38 -35 -59 -14 -121 49 -147 29 -12
39 -12 68 0 81 34 90 136 16 179 -31 19 -52 20 -90 6z m85 -44 c29 -28 32 -61
9 -93 -13 -19 -24 -22 -57 -20 -33 2 -44 9 -56 30 -19 34 -6 77 29 95 36 18
48 16 75 -12z"/>
</g>
</svg>
